<svg xmlns="http://www.w3.org/2000/svg" width="259.222" height="68.504" viewBox="0 0 259.222 68.504"><defs><style>.a{fill:#fff;}</style></defs><path class="a" d="M58.874,115.037c.162.212.319.431.488.638a17.611,17.611,0,0,0,8.182,5.478,29.5,29.5,0,0,0,4.873,1.189c.184.03.369.082.573.127v4.446C59.316,125.585,45.406,113.529,44.713,96.1a32.405,32.405,0,1,1,36.513,30.828v-4.466c.678-.13,1.341-.249,2-.386a22.626,22.626,0,0,0,7.781-3,16.208,16.208,0,0,0,3.868-3.462c.107-.132.212-.267.312-.4a1.109,1.109,0,0,0,.08-.164.32.32,0,0,0-.027-.065c-.01-.015-.027-.035-.042-.037a3.193,3.193,0,0,0-.376-.032q-17.934,0-35.863,0l-.085.135M63,104.1c.037-.439.052-.88.112-1.316a11.741,11.741,0,0,1,1.642-4.372,25.811,25.811,0,0,1,4.733-5.787c5.4-5.03,10.553-10.306,15.777-15.512a11.314,11.314,0,0,0,2.089-2.786,7.413,7.413,0,0,0,.88-2.963,6.775,6.775,0,0,0-1.907-5.027,3.214,3.214,0,0,0-.364-.3,5.644,5.644,0,0,0-.142.606,7.273,7.273,0,0,1-1.161,3.133,28.619,28.619,0,0,1-2.345,3.158C81.1,74.3,79.8,75.575,78.5,76.852q-6.165,6.064-12.355,12.1a19.8,19.8,0,0,0-3.975,5.167A9.511,9.511,0,0,0,61.1,100.2a7.681,7.681,0,0,0,1.9,3.9m-3.886-1.127c-.122-.541-.227-.989-.326-1.438a12.428,12.428,0,0,1-.077-5.665,12.587,12.587,0,0,1,2.784-5.294c.755-.885,1.583-1.71,2.408-2.53q6.812-6.759,13.636-13.511a9.433,9.433,0,0,0,2.111-3,5.531,5.531,0,0,0,.488-2.909A7.083,7.083,0,0,0,77.094,63.9c-.025-.017-.08,0-.12,0-.015.012-.047.022-.047.035a2.206,2.206,0,0,0-.017.314,7.6,7.6,0,0,1-.718,3.514,12.384,12.384,0,0,1-2.368,3.517c-.86.907-1.755,1.782-2.644,2.659q-5.9,5.828-11.806,11.652a15.785,15.785,0,0,0-3.285,4.571,9.819,9.819,0,0,0-.541,7.238,13.967,13.967,0,0,0,3.277,5.384,2.205,2.205,0,0,0,.287.189m9.895,10.3.115-.075c-.022-.1-.045-.2-.072-.294a10.332,10.332,0,0,1-.371-3.145,14.222,14.222,0,0,1,1.371-5.448,23.522,23.522,0,0,1,5-6.764q6.206-6.109,12.4-12.237a19.344,19.344,0,0,0,2.089-2.47A8.161,8.161,0,0,0,91.008,77a9.657,9.657,0,0,0-.832-3.028,2.725,2.725,0,0,0-.167.247,19.459,19.459,0,0,1-1.092,2.069,20.58,20.58,0,0,1-2.049,2.587c-1.949,2.036-3.94,4.03-5.944,6.012-3.437,3.4-6.909,6.759-10.338,10.166a15.962,15.962,0,0,0-4.967,9.9,9.569,9.569,0,0,0,1.129,5.71,8.3,8.3,0,0,0,2.258,2.609m7.333-.037c0-.783-.055-1.505.01-2.216a11.768,11.768,0,0,1,1.628-4.708,28.325,28.325,0,0,1,4.967-6.248c4.005-3.935,8.03-7.851,12.031-11.791a22.706,22.706,0,0,0,1.849-2.094,7.723,7.723,0,0,0,1.453-3.011,9.256,9.256,0,0,0-.636-5.772c-.015-.042-.072-.067-.152-.137a10.627,10.627,0,0,1-1.807,2.946c-1.124,1.321-2.243,2.657-3.469,3.883-3.569,3.562-7.2,7.068-10.787,10.607-1.6,1.578-3.2,3.158-4.748,4.78a12.493,12.493,0,0,0-2.515,3.8,8.211,8.211,0,0,0-.636,4.344,11.035,11.035,0,0,0,2.6,5.5.944.944,0,0,0,.207.125M97.476,89.164l-.164-.01A10.993,10.993,0,0,1,95,92q-4.539,4.359-9.087,8.708a12.7,12.7,0,0,0-2.193,2.789,10.572,10.572,0,0,0-1.635,6.231,6.078,6.078,0,0,0,1.236,3.282,2.2,2.2,0,0,0,.289.262c.289-.84.511-1.655.842-2.425a16.273,16.273,0,0,1,2.981-4.554c1.4-1.53,2.891-2.983,4.342-4.464,1.246-1.274,2.542-2.5,3.731-3.821a9,9,0,0,0,2.238-7.18c-.052-.558-.174-1.109-.264-1.662" transform="translate(-44.686 -62.358)"/><path class="a" d="M119.357,98.562v.992h-9.466c-.017-.187-.042-.349-.045-.511,0-.145.017-.292.032-.474.381-.065.753-.122,1.122-.192a1.591,1.591,0,0,0,1.523-1.72c.047-.74.062-1.483.057-2.226q-.022-6.165-.065-12.332v-.658c-.334.047-.354.284-.429.456q-1.14,2.624-2.273,5.249-2.49,5.776-4.985,11.55c-.082.194-.174.386-.279.613h-.83c-2.385-5.827-4.731-11.674-7.123-17.5l-.147.025a4.922,4.922,0,0,0-.08.538c-.174,3.851-.356,7.7-.506,11.557a26.471,26.471,0,0,0,.087,2.667,1.583,1.583,0,0,0,1.386,1.652c.511.13,1.039.192,1.615.3v1H91.059v-1c.282-.055.586-.112.89-.179a2.03,2.03,0,0,0,1.869-1.942q.374-2.8.626-5.618c.229-2.639.411-5.281.593-7.923a17.847,17.847,0,0,0,.032-2.221,1.7,1.7,0,0,0-1.583-1.837c-.411-.092-.835-.142-1.3-.219v-.96h6.393q3.417,7.671,6.854,15.38l.162,0c2.325-5.117,4.648-10.234,6.989-15.388h6.368V78.6c-.284.045-.588.1-.895.142-1.588.212-1.909.715-1.914,2.014,0,1.78.03,3.559.07,5.339q.1,4.352.224,8.706c.015.613.057,1.229.122,1.839a1.664,1.664,0,0,0,1.608,1.735c.371.07.748.12,1.194.189" transform="translate(24.518 -39.542)"/><path class="a" d="M121.22,83.885c-1.645-.663-2.821-1.628-2.978-3.5a8.932,8.932,0,0,0,3.248-2.163,2.809,2.809,0,0,0-.334-.217c-3.467-1.52-3.564-6.106-1.1-8.232a7.3,7.3,0,0,1,7.756-.989,1.818,1.818,0,0,0,.982.174q1.645-.168,3.287-.317c.329-.03.656-.035,1.119-.057a9.375,9.375,0,0,1-.441.885c-.192.3-.421.583-.643.865a.819.819,0,0,1-.832.327c-.454-.065-.917-.052-1.461-.077a3.717,3.717,0,0,0,.207.409,4.9,4.9,0,0,1-1.271,6.326,6.531,6.531,0,0,1-3.407,1.279,13.307,13.307,0,0,1-2.089-.052,1.065,1.065,0,0,0-.9,1.782,2.258,2.258,0,0,0,.942.479,8.045,8.045,0,0,0,1.513.112c1.206.015,2.415-.02,3.621.022a5.766,5.766,0,0,1,1.49.279,3.619,3.619,0,0,1,2.617,4.177,5.7,5.7,0,0,1-1.642,3.434,9.625,9.625,0,0,1-5.8,2.891,9.258,9.258,0,0,1-3.9-.259,5.6,5.6,0,0,1-2.418-1.351,3.781,3.781,0,0,1-1.019-1.66,2.183,2.183,0,0,1,.618-2.383c.626-.568,1.321-1.059,1.989-1.578.247-.192.508-.364.852-.608m3.988,0a20.252,20.252,0,0,0-2.133.222,2.708,2.708,0,0,0-1.56,4.307,3.638,3.638,0,0,0,1.443,1.117,6.026,6.026,0,0,0,4.581.1,3.39,3.39,0,0,0,1.483-1.059,2.594,2.594,0,0,0-1.408-4.359,22.973,22.973,0,0,0-2.405-.329M122.1,73.177a6.493,6.493,0,0,0,.568,2.722,3.832,3.832,0,0,0,.857,1.154,1.867,1.867,0,0,0,2.829-.384,4.009,4.009,0,0,0,.543-1.2,7.455,7.455,0,0,0-.017-3.888,3.718,3.718,0,0,0-.837-1.618,1.9,1.9,0,0,0-3.173.252,4.584,4.584,0,0,0-.551,1.336,13.632,13.632,0,0,0-.219,1.63" transform="translate(64.19 -53.798)"/><path class="a" d="M85.7,85.6c.017-.217.042-.364.04-.511-.007-1.5,0-3.008-.032-4.514-.022-1.024-.317-1.336-1.333-1.52-.309-.055-.621-.1-.972-.155v-.852l5.967-1.137c.012.227.042.489.042.748q0,9.253,0,18.5c0,.464.017.932.055,1.4a1.064,1.064,0,0,0,1.049,1.137c.209.037.419.067.628.1s.419.052.675.085v.872c-1.986.414-3.968.83-6,1.254-.217-.551.042-1.2-.157-1.852-.172.085-.322.145-.456.227-.581.354-1.161.705-1.73,1.072a3.981,3.981,0,0,1-3.412.426,7.1,7.1,0,0,1-5.079-6.121,8.483,8.483,0,0,1,7.058-9.144,7.961,7.961,0,0,1,3.282-.04,2.966,2.966,0,0,0,.371.03m.042,7.589v-4.13a.563.563,0,0,1,0-.065,1.343,1.343,0,0,0-.364-1.044,3.022,3.022,0,0,0-4.4-.431,4.861,4.861,0,0,0-1.548,2.572,10.007,10.007,0,0,0-.242,4.157,5.716,5.716,0,0,0,1.575,3.33,3.643,3.643,0,0,0,4.436.683.847.847,0,0,0,.553-.877c-.032-1.4-.012-2.8-.012-4.195" transform="translate(0.464 -40.642)"/><path class="a" d="M110,82.38v-.74l5.523-1.291v2.42c.252-.14.4-.2.526-.292.738-.5,1.463-1.017,2.211-1.5a3.939,3.939,0,0,1,1.969-.651,4.011,4.011,0,0,1,4.21,2.811,7.671,7.671,0,0,1,.376,2.567c0,2.079-.005,4.155,0,6.233,0,.464.022.932.062,1.4a1.14,1.14,0,0,0,.962,1.112c.307.067.618.127.955.2v.915h-7.44v-.9c.207-.05.409-.1.613-.147a1.182,1.182,0,0,0,1.1-1.2,12.993,12.993,0,0,0,.062-1.461c0-2.1,0-4.2-.037-6.3a4.189,4.189,0,0,0-.257-1.3,2.317,2.317,0,0,0-2.6-1.568,4.547,4.547,0,0,0-2.45,1.122.826.826,0,0,0-.227.546c-.032.486-.012.975-.012,1.461q0,3.182,0,6.363c0,.359.01.72.04,1.079a1.171,1.171,0,0,0,1.1,1.256c.2.045.409.095.631.147v.827a76.518,76.518,0,0,1-7.756.022c-.012-.092-.032-.194-.037-.3,0-.167,0-.334,0-.556.312-.06.6-.115.882-.164,1.067-.187,1.4-.523,1.416-1.6.027-1.7.015-3.392.017-5.089,0-1.082,0-2.161,0-3.243a7.5,7.5,0,0,0-.047-.887,1.139,1.139,0,0,0-.832-1.022c-.3-.095-.606-.174-.957-.274" transform="translate(52.075 -35.55)"/><path class="a" d="M74.991,65.236H93.564c.107,1.869.214,3.7.326,5.62-.334.027-.636.055-.982.082-.062-.174-.117-.327-.169-.479-.237-.7-.446-1.416-.718-2.1a2.337,2.337,0,0,0-2.059-1.578c-1.221-.1-2.45-.115-3.734-.169-.03.272-.067.451-.067.633q0,8.109,0,16.218c0,.359.032.72.065,1.079a1.69,1.69,0,0,0,1.59,1.822c.536.107,1.084.165,1.667.252V87.5c-.424.15-9.581.184-10.331.032v-.92c.289-.042.573-.095.862-.125,1.745-.187,2.236-.71,2.3-2.48.017-.424.017-.847.017-1.271q0-7.6,0-15.2V66.8c-.095-.055-.15-.112-.2-.11-1.246.042-2.495.067-3.739.147a2.064,2.064,0,0,0-1.807,1.323c-.3.673-.518,1.386-.765,2.084-.075.214-.125.441-.194.683h-.962a39.414,39.414,0,0,1,.326-5.688" transform="translate(0.011 -58.062)"/><path class="a" d="M102.637,83.314v-.882c.227-.047.431-.085.633-.132a1.2,1.2,0,0,0,1.1-1.209,12,12,0,0,0,.08-1.269c.007-1.929.015-3.861,0-5.79a7.986,7.986,0,0,0-.179-1.573,2.411,2.411,0,0,0-3.115-1.929,4.677,4.677,0,0,0-2.074,1.064.817.817,0,0,0-.219.421,2.278,2.278,0,0,0-.01.506v7.315c0,.319,0,.636.015.955.047,1.064.319,1.368,1.376,1.555.1.02.2.042.351.072v.9H92.857v-.887c.371-.07.745-.127,1.114-.209A1.212,1.212,0,0,0,95.1,80.971a11.466,11.466,0,0,0,.072-1.206q.011-3.5,0-7c0-.4-.047-.8-.072-1.2a1.213,1.213,0,0,0-.984-1.176c-.244-.067-.491-.127-.793-.2v-.77c1.812-.421,3.616-.842,5.5-1.281V70.59c.292-.187.461-.289.626-.4.74-.5,1.463-1.014,2.216-1.488a4.138,4.138,0,0,1,6.208,2.7,8.92,8.92,0,0,1,.242,2.076c.032,2.31.02,4.621.025,6.931v.065c.027,1.376.277,1.665,1.618,1.874.1.015.207.037.359.067v.9Z" transform="translate(27.202 -53.801)"/><path class="a" d="M107.705,83.8a14.837,14.837,0,0,1-2.178-.4,6.966,6.966,0,0,1-5.06-5.947,7.958,7.958,0,0,1,1.7-6.505,7.815,7.815,0,0,1,11.228-.872,7.532,7.532,0,0,1,2.35,6.146,8.194,8.194,0,0,1-.907,3.542c-1.461,2.707-3.8,3.925-7.136,4.038m3.891-7.258c-.037-.6-.052-1.256-.12-1.909a9.906,9.906,0,0,0-.763-3.068,4.409,4.409,0,0,0-1.092-1.545,2.538,2.538,0,0,0-3.848.361,5.507,5.507,0,0,0-.92,2.006,12.7,12.7,0,0,0-.227,4.294,10,10,0,0,0,.987,3.721,4.286,4.286,0,0,0,1.448,1.737,2.5,2.5,0,0,0,3.589-.8,5.578,5.578,0,0,0,.5-1.161,14,14,0,0,0,.444-3.639" transform="translate(38.388 -53.798)"/><path class="a" d="M118.293,88.016a8.493,8.493,0,0,1-.608,3.3,7.291,7.291,0,0,1-6.5,4.673,7.888,7.888,0,0,1-4.033-.68,7.421,7.421,0,0,1-4.225-7.592,9.923,9.923,0,0,1,.349-1.869,7.849,7.849,0,0,1,11-4.691,7.324,7.324,0,0,1,4.013,6.861m-4.227.84c0-.466.022-.935,0-1.4a10.727,10.727,0,0,0-.775-3.582,4.389,4.389,0,0,0-1.112-1.608,2.524,2.524,0,0,0-3.888.376,5.262,5.262,0,0,0-.872,1.892,12.707,12.707,0,0,0-.179,4.982,9.781,9.781,0,0,0,.96,3.208,4.378,4.378,0,0,0,1.224,1.523,2.532,2.532,0,0,0,3.858-.815,5.339,5.339,0,0,0,.409-1,10.785,10.785,0,0,0,.381-3.582" transform="translate(42.182 -35.564)"/><path class="a" d="M141.213,83.768a7.416,7.416,0,0,1-7.627-8.295,7.734,7.734,0,0,1,6.106-7.166,7.4,7.4,0,0,1,9.252,7.1,8.834,8.834,0,0,1-.855,4.257,7.445,7.445,0,0,1-6.876,4.1m3.557-7.031a13.714,13.714,0,0,0-.648-4.646,4.9,4.9,0,0,0-1.209-1.991,2.561,2.561,0,0,0-4.02.381,5.964,5.964,0,0,0-.915,2.216,13.294,13.294,0,0,0-.05,4.8,9.279,9.279,0,0,0,.972,3.073,4.085,4.085,0,0,0,1.361,1.565,2.5,2.5,0,0,0,3.589-.8,5.369,5.369,0,0,0,.533-1.284,11.484,11.484,0,0,0,.386-3.317" transform="translate(87.944 -53.797)"/><path class="a" d="M118.9,83.777a7.863,7.863,0,0,1-6.024-2.218,7.281,7.281,0,0,1-2.064-4.666,8.981,8.981,0,0,1,.272-3.026,7.845,7.845,0,0,1,12.4-4.085,7.288,7.288,0,0,1,2.664,5.234A8.378,8.378,0,0,1,125.07,80.1a7.209,7.209,0,0,1-6.171,3.679m-3.906-8.624c0,.339-.022.68,0,1.017a11.2,11.2,0,0,0,1.029,4.23,4.333,4.333,0,0,0,1.393,1.7,2.5,2.5,0,0,0,3.676-.805,5.235,5.235,0,0,0,.536-1.351,14.817,14.817,0,0,0,.177-5.867,15.558,15.558,0,0,0-.685-2.5,3.658,3.658,0,0,0-1.077-1.55,2.508,2.508,0,0,0-3.838.354,6.373,6.373,0,0,0-.818,1.637,8.259,8.259,0,0,0-.4,3.13" transform="translate(53.953 -53.803)"/><path class="a" d="M152.5,81.391V80.6a44.841,44.841,0,0,1,5.937-.042V81.4c-.214.065-.449.147-.69.207a2.238,2.238,0,0,0-1.473,1.122,15.108,15.108,0,0,0-.75,1.47c-2.271,5.383-4.618,10.737-6.632,16.228-.3.815-.543,1.65-.818,2.472-.254.765-.583.994-1.371.9a2.269,2.269,0,0,1-1.809-1.246,1.258,1.258,0,0,1,.326-1.655,4.367,4.367,0,0,1,.631-.426,7.558,7.558,0,0,0,3.248-4.319,2.181,2.181,0,0,0-.132-1.55q-1.567-4.232-3.145-8.454c-.351-.932-.75-1.844-1.109-2.771a2.665,2.665,0,0,0-2.253-1.9,1.215,1.215,0,0,1-.3-.122v-.75a72.124,72.124,0,0,1,7.724-.057v.835l-.68.222c-.758.259-.92.533-.67,1.289.481,1.448.987,2.886,1.485,4.327q.579,1.679,1.169,3.36c.035.095.082.184.16.361a2.939,2.939,0,0,0,.244-.4q1.275-3.589,2.54-7.185a3.629,3.629,0,0,0,.092-.369.957.957,0,0,0-.69-1.289c-.314-.12-.646-.2-1.029-.309" transform="translate(100.781 -35.317)"/><path class="a" d="M94.521,91.784c.145.209.3.434.444.641-1.787,2.744-5.314,4.733-9.057,2.829A6.468,6.468,0,0,1,82.5,90.531,8.655,8.655,0,0,1,86.678,81.2a5.792,5.792,0,0,1,4.526-.69,5.472,5.472,0,0,1,3.93,4.74c.08,1.154-.217,1.5-1.363,1.575q-3.454.228-6.911.449l-.95.067c.022.351.035.66.065.967a6.6,6.6,0,0,0,.6,2.2A4.483,4.483,0,0,0,92.465,92.9a18.074,18.074,0,0,0,2.056-1.117m-8.452-5.9c1.7-.055,3.287-.1,4.87-.165.384-.015.541-.217.551-.638a4.124,4.124,0,0,0-.71-2.522,2,2,0,0,0-3.133-.381,5.534,5.534,0,0,0-1.578,3.706" transform="translate(11.456 -35.553)"/><path class="a" d="M85.055,75.122c.077,1.989.523,3.763,2.141,5a4.4,4.4,0,0,0,4.578.479,16.479,16.479,0,0,0,1.879-1.059l.469.648c-2.084,3.135-5.757,4.651-9.287,2.709a6.36,6.36,0,0,1-3.068-4.115A8.66,8.66,0,0,1,86.4,68.677,5.417,5.417,0,0,1,93.918,71.5a4.68,4.68,0,0,1,.354,1.986c-.027.7-.289,1-1,1.064-.989.1-1.981.182-2.976.247-1.608.1-3.218.182-4.825.274-.1.007-.2.025-.419.052m.169-1.558c.274.015.5.04.725.035q1.839-.03,3.679-.07a2.905,2.905,0,0,0,.444-.032c.424-.075.553-.2.563-.631a3.842,3.842,0,0,0-.82-2.669,2.572,2.572,0,0,0-1.012-.723,1.94,1.94,0,0,0-2.176.633,5.743,5.743,0,0,0-1.4,3.457" transform="translate(10.197 -53.789)"/><path class="a" d="M124.465,87.356a6.386,6.386,0,0,0,1.814,4.738,4.4,4.4,0,0,0,4.444.932,6.41,6.41,0,0,0,2.3-1.306c.184.257.351.489.551.76a8.134,8.134,0,0,1-4.773,3.392,6.427,6.427,0,0,1-7.467-4.344A8.674,8.674,0,0,1,125.35,81.16a5.469,5.469,0,0,1,5.179-.349,5.276,5.276,0,0,1,3.165,4.506c.1,1.059-.214,1.443-1.284,1.518-2.258.155-4.521.294-6.782.444-.356.022-.715.047-1.164.077m.194-1.613c.095.067.112.09.13.09,1.565-.03,3.13-.05,4.7-.1.391-.012.573-.209.576-.621a3.982,3.982,0,0,0-.94-2.824,1.92,1.92,0,0,0-2.637-.3,3.362,3.362,0,0,0-.765.75,5.874,5.874,0,0,0-1.059,3" transform="translate(69.013 -35.564)"/><path class="a" d="M140.427,87.341A6.455,6.455,0,0,0,142.152,92a4.4,4.4,0,0,0,4.539,1.017,6.621,6.621,0,0,0,2.3-1.3c.184.254.351.488.508.705-3.135,4.735-8.4,4.372-10.971,1.3a7.328,7.328,0,0,1-1.665-4.89,8.421,8.421,0,0,1,4.349-7.617,5.643,5.643,0,0,1,4.519-.7,5.474,5.474,0,0,1,3.955,4.99c.03.865-.287,1.244-1.181,1.311-2.006.152-4.013.279-6.019.411-.653.045-1.308.075-2.054.115m.189-1.605c.1.065.115.09.132.087,1.568-.027,3.133-.047,4.7-.095.389-.012.578-.212.578-.621a3.981,3.981,0,0,0-.984-2.871,1.921,1.921,0,0,0-2.545-.289,3.3,3.3,0,0,0-.778.735,5.929,5.929,0,0,0-1.1,3.053" transform="translate(92.867 -35.556)"/><path class="a" d="M115.237,87.524v.813a78.949,78.949,0,0,1-8.267.042c-.012-.13-.035-.274-.04-.416,0-.125.015-.249.03-.426l.85-.179c1.054-.227,1.338-.553,1.4-1.64.027-.446.035-.89.035-1.336q.007-7.406,0-14.815c0-.531-.012-1.062-.052-1.588a1.118,1.118,0,0,0-1.034-1.174c-.326-.075-.658-.127-1.027-.194v-.77c1.909-.384,3.8-.768,5.772-1.164.012.254.032.5.032.745q0,9.634,0,19.266c0,.424,0,.847.035,1.271a1.282,1.282,0,0,0,1.209,1.386c.329.072.663.115,1.054.179" transform="translate(48.203 -58.896)"/><path class="a" d="M122.552,83.438h.994c.72,0,1.441.012,2.161,0a.469.469,0,0,1,.518.441.8.8,0,0,1-.832,1.047c-.72.007-1.443,0-2.163,0h-.683c-.015.289-.035.516-.035.743,0,2.522-.012,5.045.007,7.567a7.474,7.474,0,0,0,.187,1.7,1.775,1.775,0,0,0,2.193,1.515,13.371,13.371,0,0,0,1.431-.329c.082.284.167.576.259.9-.145.09-.259.179-.386.242-.7.346-1.406.693-2.114,1.032a3.654,3.654,0,0,1-2.343.349,3.188,3.188,0,0,1-2.821-2.983,14.023,14.023,0,0,1-.1-1.647c-.01-2.757,0-5.511,0-8.267v-.815h-1.525a2.656,2.656,0,0,1-.508-.02.286.286,0,0,1-.192-.476,5.654,5.654,0,0,1,.69-.827.882.882,0,0,1,.518-.157c.309-.025.623-.007,1.017-.007,0-.69.027-1.3-.007-1.9a.987.987,0,0,1,.476-.95c.788-.573,1.548-1.186,2.32-1.78a2.212,2.212,0,0,1,.307-.227c.3-.164.541-.047.586.3a3.277,3.277,0,0,1,.01.444c0,1.124,0,2.246,0,3.37,0,.227.022.454.04.75" transform="translate(62.517 -38.261)"/><path class="a" d="M140.43,94.661v.895h-8.621v-.912c.356-.065.69-.115,1.019-.184a1.234,1.234,0,0,0,1.089-1.151A10.346,10.346,0,0,0,134,92.234q.011-3.78,0-7.562c0-.127,0-.254-.01-.381-.045-1.214-.287-1.51-1.461-1.79-.122-.03-.244-.067-.406-.112v-.733l5.533-1.286v3.395l.15.042c.122-.184.244-.366.364-.553a9.022,9.022,0,0,1,1.912-2.278,2.5,2.5,0,0,1,1.867-.641,1.969,1.969,0,0,1,1.869,1.827,2.216,2.216,0,0,1-1.687,2.31,1.328,1.328,0,0,1-.7-.182c-.244-.12-.444-.331-.685-.454a1.559,1.559,0,0,0-1.889.212,3.2,3.2,0,0,0-1.2,2.48c.037,1.864.007,3.729.012,5.593,0,.359.015.72.05,1.077a1.228,1.228,0,0,0,1.1,1.206c.518.087,1.037.167,1.6.257" transform="translate(85.332 -35.547)"/><path class="a" d="M135.092,94.659v.887h-8.586c-.017-.13-.037-.232-.042-.334-.007-.167,0-.334,0-.561.312-.055.6-.1.882-.157a1.353,1.353,0,0,0,1.3-1.458c.02-.252.022-.508.022-.763,0-2.542-.01-5.087,0-7.632.01-1.667-.3-1.917-1.67-2.193a1.081,1.081,0,0,1-.212-.095v-.693c1.842-.426,3.666-.852,5.543-1.289a33.813,33.813,0,0,0,.187,3.4c.122-.187.247-.376.369-.566a9.152,9.152,0,0,1,1.827-2.186,2.547,2.547,0,0,1,1.922-.685,2.005,2.005,0,0,1,1.884,1.822,2.243,2.243,0,0,1-1.695,2.315,1.356,1.356,0,0,1-.7-.177c-.209-.095-.374-.277-.576-.394a1.609,1.609,0,0,0-2.1.227,3.162,3.162,0,0,0-1.1,2.4c.04,1.844.01,3.689.012,5.533,0,.359.012.72.045,1.079a1.191,1.191,0,0,0,1.109,1.259c.493.112,1,.165,1.573.257" transform="translate(77.348 -35.547)"/><path class="a" d="M99.636,79.494l.546.69a2.694,2.694,0,0,1-.287.431c-.563.571-1.1,1.176-1.715,1.69-3.562,2.976-8.708,1.1-10.264-2.707A7.784,7.784,0,0,1,89.731,71a9.921,9.921,0,0,1,5.76-2.854,5.38,5.38,0,0,1,3.272.541,1.589,1.589,0,0,1,.3,2.794.8.8,0,0,1-1.191.037c-.389-.294-.755-.618-1.154-.895a4.486,4.486,0,0,0-1.917-.8,2.65,2.65,0,0,0-2.6.977,4.875,4.875,0,0,0-.83,1.48,7.851,7.851,0,0,0-.012,5.119,4.951,4.951,0,0,0,4.137,3.577,4.408,4.408,0,0,0,3.14-.765c.317-.209.618-.444,1-.72" transform="translate(18.945 -53.802)"/><path class="a" d="M140.294,79.487l.568.728a8.354,8.354,0,0,1-4.277,3.29,6.421,6.421,0,0,1-6.271-1.488,7.355,7.355,0,0,1-1.817-8.165,9.589,9.589,0,0,1,8.641-5.752,5.034,5.034,0,0,1,2.373.628,1.6,1.6,0,0,1,.03,2.881.736.736,0,0,1-.89-.01c-.187-.137-.359-.294-.541-.441a6.1,6.1,0,0,0-2.193-1.246,2.849,2.849,0,0,0-3.292,1.154,4.258,4.258,0,0,0-.553,1.067,7.923,7.923,0,0,0,.065,5.6,4.861,4.861,0,0,0,4.055,3.248,4.468,4.468,0,0,0,3.135-.793c.314-.212.616-.441.967-.7" transform="translate(79.603 -53.792)"/><path class="a" d="M124.431,70.147v-.79l5.635-1.234v.655q0,5.529,0,11.059a9.716,9.716,0,0,0,.037,1.079,1.255,1.255,0,0,0,1.127,1.264c.327.077.658.127,1.032.2v.9h-8.075v-.895c.3-.055.613-.1.92-.165.85-.184,1.127-.5,1.206-1.386.035-.359.055-.718.055-1.079q.007-3.559,0-7.118a10.909,10.909,0,0,0-.062-1.142,1.154,1.154,0,0,0-1-1.149c-.282-.075-.571-.127-.875-.2" transform="translate(73.96 -53.754)"/><path class="a" d="M129.092,67.546a2.113,2.113,0,1,1-2.084-2.156,2.074,2.074,0,0,1,2.084,2.156" transform="translate(74.972 -57.832)"/><path class="a" d="M114.374,71.3l-.962-.424c.2-.586.391-1.122.573-1.657.384-1.122.78-2.241,1.141-3.37a.7.7,0,0,1,.656-.571c.78-.07,1.555-.167,2.335-.237.2-.017.481-.08.543.184a.741.741,0,0,1-.177.5c-.81,1.117-1.63,2.221-2.447,3.33L114.374,71.3" transform="translate(57.877 -58.379)"/></svg>